<svg width="16" height="16" viewBox="0 0 16 16" fill="none" xmlns="http://www.w3.org/2000/svg">
    <path d="M9.99997 3.99995C10.0003 4.15572 9.94602 4.30667 9.84663 4.42661L6.85997 7.99995L9.73997 11.5799C9.79534 11.6481 9.8367 11.7266 9.86165 11.8108C9.88661 11.8951 9.89467 11.9834 9.88538 12.0707C9.87608 12.1581 9.84962 12.2427 9.8075 12.3198C9.76539 12.3969 9.70845 12.4649 9.63997 12.5199C9.57178 12.5753 9.49331 12.6167 9.40909 12.6416C9.32486 12.6666 9.23653 12.6746 9.14918 12.6654C9.06183 12.6561 8.97717 12.6296 8.90008 12.5875C8.82299 12.5454 8.75498 12.4884 8.69997 12.4199L5.47997 8.41995C5.38191 8.30066 5.32831 8.15103 5.32831 7.99661C5.32831 7.8422 5.38191 7.69257 5.47997 7.57328L8.8133 3.57328C8.86927 3.50578 8.938 3.44997 9.01556 3.40907C9.09313 3.36817 9.178 3.34297 9.26532 3.33492C9.35264 3.32687 9.44069 3.33613 9.52442 3.36216C9.60816 3.38819 9.68594 3.43048 9.7533 3.48661C9.82978 3.54865 9.89156 3.62686 9.93421 3.71562C9.97686 3.80437 9.99932 3.90148 9.99997 3.99995Z" fill="black"/>
</svg>
