<svg width="16" height="16" viewBox="0 0 16 16" fill="none" xmlns="http://www.w3.org/2000/svg">
    <path d="M6.00003 12C5.99973 11.8443 6.05398 11.6933 6.15337 11.5734L9.14003 8.00002L6.26003 4.42002C6.20466 4.35183 6.1633 4.27337 6.13835 4.18914C6.11339 4.10491 6.10533 4.01659 6.11462 3.92923C6.12392 3.84188 6.15038 3.75723 6.1925 3.68014C6.23461 3.60305 6.29155 3.53504 6.36003 3.48002C6.42822 3.42465 6.50669 3.38329 6.59091 3.35834C6.67514 3.33338 6.76347 3.32532 6.85082 3.33461C6.93817 3.34391 7.02283 3.37037 7.09992 3.41249C7.17701 3.4546 7.24502 3.51154 7.30003 3.58002L10.52 7.58002C10.6181 7.69931 10.6717 7.84894 10.6717 8.00336C10.6717 8.15777 10.6181 8.3074 10.52 8.42669L7.1867 12.4267C7.13073 12.4942 7.062 12.55 6.98444 12.5909C6.90687 12.6318 6.822 12.657 6.73468 12.665C6.64736 12.6731 6.55931 12.6638 6.47558 12.6378C6.39184 12.6118 6.31406 12.5695 6.2467 12.5134C6.17022 12.4513 6.10844 12.3731 6.06579 12.2844C6.02314 12.1956 6.00068 12.0985 6.00003 12Z" fill="#232323"/>
</svg>
