<svg width="16" height="16" viewBox="0 0 16 16" fill="none" xmlns="http://www.w3.org/2000/svg">
    <path d="M6.00003 12.0001C5.99973 11.8443 6.05398 11.6933 6.15337 11.5734L9.14003 8.00005L6.26003 4.42005C6.20466 4.35186 6.1633 4.2734 6.13835 4.18917C6.11339 4.10494 6.10533 4.01662 6.11462 3.92926C6.12392 3.84191 6.15038 3.75726 6.1925 3.68017C6.23461 3.60308 6.29155 3.53507 6.36003 3.48005C6.42822 3.42468 6.50669 3.38332 6.59091 3.35837C6.67514 3.33341 6.76347 3.32535 6.85082 3.33464C6.93817 3.34394 7.02283 3.3704 7.09992 3.41252C7.17701 3.45463 7.24502 3.51157 7.30003 3.58005L10.52 7.58005C10.6181 7.69934 10.6717 7.84897 10.6717 8.00339C10.6717 8.1578 10.6181 8.30743 10.52 8.42672L7.1867 12.4267C7.13073 12.4942 7.062 12.55 6.98443 12.5909C6.90687 12.6318 6.822 12.657 6.73468 12.6651C6.64736 12.6731 6.55931 12.6639 6.47558 12.6378C6.39184 12.6118 6.31406 12.5695 6.2467 12.5134C6.17022 12.4514 6.10844 12.3731 6.06579 12.2844C6.02314 12.1956 6.00068 12.0985 6.00003 12.0001Z" fill="white"/>
</svg>
