<svg width="16" height="16" viewBox="0 0 16 16" fill="none" xmlns="http://www.w3.org/2000/svg">
    <path d="M3.99995 6.00003C4.15572 5.99973 4.30667 6.05398 4.42661 6.15337L7.99995 9.14003L11.5799 6.26003C11.6481 6.20466 11.7266 6.1633 11.8108 6.13835C11.8951 6.11339 11.9834 6.10533 12.0707 6.11462C12.1581 6.12392 12.2427 6.15038 12.3198 6.1925C12.3969 6.23461 12.4649 6.29155 12.5199 6.36003C12.5753 6.42822 12.6167 6.50669 12.6416 6.59091C12.6666 6.67514 12.6747 6.76347 12.6654 6.85082C12.6561 6.93817 12.6296 7.02283 12.5875 7.09992C12.5454 7.17701 12.4884 7.24502 12.4199 7.30003L8.41995 10.52C8.30066 10.6181 8.15103 10.6717 7.99661 10.6717C7.8422 10.6717 7.69257 10.6181 7.57328 10.52L3.57328 7.1867C3.50578 7.13073 3.44997 7.062 3.40907 6.98443C3.36817 6.90687 3.34297 6.822 3.33492 6.73468C3.32687 6.64736 3.33613 6.55931 3.36216 6.47558C3.38819 6.39184 3.43048 6.31406 3.48661 6.2467C3.54865 6.17022 3.62686 6.10844 3.71562 6.06579C3.80437 6.02314 3.90148 6.00068 3.99995 6.00003Z" fill="black"/>
</svg>
