<svg width="129" height="22" viewBox="0 0 129 22" fill="none" xmlns="http://www.w3.org/2000/svg">
    <rect x="0.25" y="0.25" width="128.5" height="21.5" rx="4.75" fill="white" stroke="#262D4A" stroke-width="0.5"/>
    <path d="M18.3057 11.8965C18.1917 12.9447 17.8158 13.7467 17.1777 14.3027C16.5443 14.8587 15.6989 15.1367 14.6416 15.1367C13.9033 15.1367 13.2493 14.9521 12.6797 14.583C12.1146 14.2139 11.6771 13.6921 11.3672 13.0176C11.0573 12.3385 10.9001 11.5638 10.8955 10.6934V9.40137C10.8955 8.51725 11.0505 7.7334 11.3604 7.0498C11.6702 6.36621 12.1146 5.83984 12.6934 5.4707C13.2767 5.09701 13.9466 4.91016 14.7031 4.91016C15.7695 4.91016 16.6104 5.19954 17.2256 5.77832C17.8454 6.35254 18.2054 7.14779 18.3057 8.16406H17.458C17.2484 6.47331 16.3301 5.62793 14.7031 5.62793C13.8008 5.62793 13.0807 5.96517 12.543 6.63965C12.0098 7.31413 11.7432 8.24609 11.7432 9.43555V10.6523C11.7432 11.8008 12.0029 12.7168 12.5225 13.4004C13.0465 14.084 13.7529 14.4258 14.6416 14.4258C15.5212 14.4258 16.1842 14.2161 16.6309 13.7969C17.0775 13.373 17.3532 12.7396 17.458 11.8965H18.3057ZM25.8389 15H25.0186V8.30762H21.0332V15H20.2129V7.60352H25.8389V15ZM27.582 11.1924C27.582 10.4814 27.7188 9.84115 27.9922 9.27148C28.2702 8.70182 28.6598 8.25977 29.1611 7.94531C29.667 7.6263 30.2389 7.4668 30.877 7.4668C31.8613 7.4668 32.6589 7.81315 33.2695 8.50586C33.8802 9.19401 34.1855 10.1077 34.1855 11.2471V11.418C34.1855 12.1335 34.0465 12.7783 33.7686 13.3525C33.4951 13.9222 33.1077 14.362 32.6064 14.6719C32.1051 14.9818 31.5332 15.1367 30.8906 15.1367C29.9108 15.1367 29.1133 14.7926 28.498 14.1045C27.8874 13.4118 27.582 12.4958 27.582 11.3564V11.1924ZM28.4023 11.418C28.4023 12.3021 28.6302 13.029 29.0859 13.5986C29.5462 14.1637 30.1478 14.4463 30.8906 14.4463C31.6289 14.4463 32.2259 14.1637 32.6816 13.5986C33.1419 13.029 33.3721 12.2793 33.3721 11.3496V11.1924C33.3721 10.6273 33.2673 10.11 33.0576 9.64062C32.848 9.17122 32.554 8.80892 32.1758 8.55371C31.7975 8.29395 31.3646 8.16406 30.877 8.16406C30.1478 8.16406 29.5531 8.45117 29.0928 9.02539C28.6325 9.59505 28.4023 10.3424 28.4023 11.2676V11.418ZM41.1445 15H40.3242V11.8896C39.6497 12.1357 39.0049 12.2588 38.3896 12.2588C37.4098 12.2588 36.6989 12.0446 36.2568 11.6162C35.8148 11.1833 35.5846 10.5111 35.5664 9.59961V7.60352H36.3799V9.55859C36.389 10.265 36.5439 10.7754 36.8447 11.0898C37.1501 11.3997 37.665 11.5547 38.3896 11.5547C39.0505 11.5365 39.6953 11.418 40.3242 11.1992V7.60352H41.1445V15ZM48.001 15C47.9189 14.7676 47.8665 14.4235 47.8438 13.9678C47.5566 14.3415 47.1898 14.6309 46.7432 14.8359C46.3011 15.0365 45.8317 15.1367 45.335 15.1367C44.624 15.1367 44.0475 14.9385 43.6055 14.542C43.168 14.1455 42.9492 13.6442 42.9492 13.0381C42.9492 12.318 43.2477 11.7484 43.8447 11.3291C44.4463 10.9098 45.2826 10.7002 46.3535 10.7002H47.8369V9.85938C47.8369 9.33073 47.6729 8.91602 47.3447 8.61523C47.0212 8.3099 46.5472 8.15723 45.9229 8.15723C45.3532 8.15723 44.8815 8.30306 44.5078 8.59473C44.1341 8.88639 43.9473 9.2373 43.9473 9.64746L43.127 9.64062C43.127 9.05273 43.4004 8.5446 43.9473 8.11621C44.4941 7.68327 45.1663 7.4668 45.9639 7.4668C46.7887 7.4668 47.4382 7.67415 47.9121 8.08887C48.3906 8.49902 48.6367 9.07324 48.6504 9.81152V13.3115C48.6504 14.027 48.7256 14.5625 48.876 14.918V15H48.001ZM45.4307 14.4121C45.9775 14.4121 46.4652 14.2799 46.8936 14.0156C47.3265 13.7513 47.641 13.3981 47.8369 12.9561V11.3291H46.374C45.5583 11.3382 44.9202 11.4886 44.46 11.7803C43.9997 12.0674 43.7695 12.4639 43.7695 12.9697C43.7695 13.3844 43.9222 13.7285 44.2275 14.002C44.5374 14.2754 44.9385 14.4121 45.4307 14.4121ZM56.04 8.30078H53.3467V15H52.5264V8.30078H49.9355V7.60352H56.04V8.30078ZM59.3965 11.6094H58.2617V15H57.4346V7.60352H58.2617V10.8848H59.3828L62.0967 7.60352H63.1289L60.0938 11.1924L63.4639 15H62.3838L59.3965 11.6094ZM66.9912 13.8242L69.1514 7.60352H70.0332L66.875 16.2578L66.7109 16.6406C66.3053 17.5384 65.6787 17.9873 64.8311 17.9873C64.6351 17.9873 64.4255 17.9554 64.2021 17.8916L64.1953 17.2148L64.6191 17.2559C65.0202 17.2559 65.3438 17.1556 65.5898 16.9551C65.8405 16.7591 66.0524 16.4196 66.2256 15.9365L66.5879 14.9385L63.7988 7.60352H64.6943L66.9912 13.8242ZM80.3896 15H79.5693V11.6094H75.584V15H74.7637V7.60352H75.584V10.9189H79.5693V7.60352H80.3896V15ZM82.1328 11.1924C82.1328 10.4814 82.2695 9.84115 82.543 9.27148C82.821 8.70182 83.2106 8.25977 83.7119 7.94531C84.2178 7.6263 84.7897 7.4668 85.4277 7.4668C86.4121 7.4668 87.2096 7.81315 87.8203 8.50586C88.431 9.19401 88.7363 10.1077 88.7363 11.2471V11.418C88.7363 12.1335 88.5973 12.7783 88.3193 13.3525C88.0459 13.9222 87.6585 14.362 87.1572 14.6719C86.6559 14.9818 86.084 15.1367 85.4414 15.1367C84.4616 15.1367 83.6641 14.7926 83.0488 14.1045C82.4382 13.4118 82.1328 12.4958 82.1328 11.3564V11.1924ZM82.9531 11.418C82.9531 12.3021 83.181 13.029 83.6367 13.5986C84.097 14.1637 84.6986 14.4463 85.4414 14.4463C86.1797 14.4463 86.7767 14.1637 87.2324 13.5986C87.6927 13.029 87.9229 12.2793 87.9229 11.3496V11.1924C87.9229 10.6273 87.818 10.11 87.6084 9.64062C87.3988 9.17122 87.1048 8.80892 86.7266 8.55371C86.3483 8.29395 85.9154 8.16406 85.4277 8.16406C84.6986 8.16406 84.1038 8.45117 83.6436 9.02539C83.1833 9.59505 82.9531 10.3424 82.9531 11.2676V11.418ZM90.5205 15V7.60352H93.2344C94.1732 7.60352 94.8932 7.77214 95.3945 8.10938C95.8958 8.44206 96.1465 8.93197 96.1465 9.5791C96.1465 9.94824 96.0348 10.2786 95.8115 10.5703C95.5882 10.8574 95.2624 11.0671 94.834 11.1992C95.3171 11.2904 95.7044 11.4977 95.9961 11.8213C96.2923 12.1449 96.4404 12.5208 96.4404 12.9492C96.4404 13.6009 96.1989 14.1068 95.7158 14.4668C95.2373 14.8223 94.5583 15 93.6787 15H90.5205ZM91.334 11.5957V14.3164H93.7061C94.3213 14.3164 94.7952 14.1979 95.1279 13.9609C95.4606 13.724 95.627 13.3822 95.627 12.9355C95.627 12.5254 95.4606 12.1995 95.1279 11.958C94.7952 11.7165 94.3213 11.5957 93.7061 11.5957H91.334ZM91.334 10.9121H93.4053C94.6904 10.8939 95.333 10.4564 95.333 9.59961C95.333 9.14844 95.1553 8.82031 94.7998 8.61523C94.4489 8.4056 93.9271 8.30078 93.2344 8.30078H91.334V10.9121ZM99.1816 15H98.3613V7.60352H99.1816V15ZM98.2178 5.46387C98.2178 5.30892 98.2679 5.17904 98.3682 5.07422C98.4684 4.96484 98.6051 4.91016 98.7783 4.91016C98.9515 4.91016 99.0882 4.96484 99.1885 5.07422C99.2933 5.17904 99.3457 5.30892 99.3457 5.46387C99.3457 5.61882 99.2933 5.7487 99.1885 5.85352C99.0882 5.95833 98.9515 6.01074 98.7783 6.01074C98.6051 6.01074 98.4684 5.95833 98.3682 5.85352C98.2679 5.7487 98.2178 5.61882 98.2178 5.46387Z" fill="#656565"/>
    <path d="M110 10C110.156 9.99973 110.307 10.054 110.427 10.1534L114 13.14L117.58 10.26C117.648 10.2047 117.727 10.1633 117.811 10.1383C117.895 10.1134 117.983 10.1053 118.071 10.1146C118.158 10.1239 118.243 10.1504 118.32 10.1925C118.397 10.2346 118.465 10.2915 118.52 10.36C118.575 10.4282 118.617 10.5067 118.642 10.5909C118.667 10.6751 118.675 10.7635 118.665 10.8508C118.656 10.9382 118.63 11.0228 118.587 11.0999C118.545 11.177 118.488 11.245 118.42 11.3L114.42 14.52C114.301 14.6181 114.151 14.6717 113.997 14.6717C113.842 14.6717 113.693 14.6181 113.573 14.52L109.573 11.1867C109.506 11.1307 109.45 11.062 109.409 10.9844C109.368 10.9069 109.343 10.822 109.335 10.7347C109.327 10.6474 109.336 10.5593 109.362 10.4756C109.388 10.3918 109.43 10.3141 109.487 10.2467C109.549 10.1702 109.627 10.1084 109.716 10.0658C109.804 10.0231 109.901 10.0007 110 10Z" fill="#C4C4C4"/>
</svg>
