<svg width="40" height="40" viewBox="0 0 40 40" fill="none" xmlns="http://www.w3.org/2000/svg">
    <path d="M32.89 26.7667C31.4799 29.6175 29.193 31.9413 26.365 33.3967C23.5573 34.8383 20.356 35.3251 17.2467 34.7833C14.1277 34.235 11.2701 32.6913 9.10167 30.3833C6.91312 28.0536 5.51968 25.0899 5.12167 21.9183C4.71742 18.7395 5.32632 15.5143 6.86167 12.7017C8.38291 9.9106 10.7601 7.68176 13.6433 6.34332C16.5072 5.01693 19.7256 4.66115 22.81 5.32999C25.8933 5.99832 28.42 7.51832 30.51 9.92166C30.7617 10.1883 31.735 11.265 32.5433 12.89" stroke="black" stroke-width="2" stroke-linecap="round" stroke-linejoin="round"/>
    <path d="M25.115 13.0217L33.515 14.5333L35 5.98334" stroke="black" stroke-width="2" stroke-linecap="round" stroke-linejoin="round"/>
</svg>
