<svg width="78" height="15" viewBox="0 0 78 15" fill="none" xmlns="http://www.w3.org/2000/svg">
    <path d="M7 0L8.5716 4.87047H13.6574L9.5429 7.88059L11.1145 12.7511L7 9.74094L2.8855 12.7511L4.4571 7.88059L0.342604 4.87047H5.4284L7 0Z" fill="#FF9A01"/>
    <path d="M23 0L24.5716 4.87047H29.6574L25.5429 7.88059L27.1145 12.7511L23 9.74094L18.8855 12.7511L20.4571 7.88059L16.3426 4.87047H21.4284L23 0Z" fill="#FF9A01"/>
    <path d="M39 0L40.5716 4.87047H45.6574L41.5429 7.88059L43.1145 12.7511L39 9.74094L34.8855 12.7511L36.4571 7.88059L32.3426 4.87047H37.4284L39 0Z" fill="#FF9A01"/>
    <path d="M55 0L56.5716 4.87047H61.6574L57.5429 7.88059L59.1145 12.7511L55 9.74094L50.8855 12.7511L52.4571 7.88059L48.3426 4.87047H53.4284L55 0Z" fill="#FF9A01"/>
    <path d="M71 0L72.5716 4.87047H77.6574L73.5429 7.88059L75.1145 12.7511L71 9.74094L66.8855 12.7511L68.4571 7.88059L64.3426 4.87047H69.4284L71 0Z" fill="#FF9A01"/>
</svg>
